<svg xmlns="http://www.w3.org/2000/svg" viewBox="0 0 32 32">
  <!--
    Lightweight SVG fallback. Prefer the PNG favicons cut from the
    brand sheet (favicon-32.png) for the true W-mark.
  -->
  <defs>
    <linearGradient id="bg" x1="0" y1="0" x2="0" y2="1">
      <stop stop-color="#F03A45"/>
      <stop offset="1" stop-color="#C41824"/>
    </linearGradient>
  </defs>
  <rect width="32" height="32" rx="7" fill="url(#bg)"/>
  <path fill="#fff" d="M7.8 23.2 11.6 9.8c.3-1 1.7-1.1 2.15-.15L16.2 18.8l1.85-5.4c.35-1.05 1.85-1 2.15.1L22.2 22.6l2.55-1.35c.7-.35 1.5.35 1.2 1.05-.15.35-.5.55-.85.5l-4.5-1.05-1.55 4.55c-.3.9-1.55.9-1.85-.05L14.5 19.4l-2.05 5.1c-.35.9-1.6.95-2.05.05L8.4 18.2l-.85 4.05c-.25.95-1.55 1.2-2.1.35-.25-.4-.25-.95.05-1.35z"/>
  <path fill="#fff" d="M23.7 6.1c-1.4 0-2.55 1.1-2.55 2.45 0 1.7 2.55 4.3 2.55 4.3s2.55-2.6 2.55-4.3c0-1.35-1.15-2.45-2.55-2.45z"/>
  <circle cx="23.7" cy="8.5" r="0.95" fill="#E01F2D"/>
</svg>
